<svg width="40" height="40" viewBox="0 0 40 40" fill="none" xmlns="http://www.w3.org/2000/svg">
<circle cx="20" cy="20" r="20" fill="#2168EA"/>
<path fill-rule="evenodd" clip-rule="evenodd" d="M8.56594 14.0742H8.93152L8.94159 14.0746C10.2009 14.116 11.4046 14.562 12.3757 15.3338C13.3467 14.562 14.5505 14.116 15.8098 14.0746L15.8198 14.0742H16.1854L16.1955 14.0746C17.4548 14.116 18.6585 14.562 19.6296 15.3338C20.6006 14.562 21.8043 14.116 23.0636 14.0746L23.0737 14.0742H23.4393L23.4494 14.0746C24.7087 14.116 25.9124 14.562 26.8834 15.3338C27.8545 14.562 29.0582 14.116 30.3175 14.0746L30.3276 14.0742H30.6932L30.7032 14.0746C32.2202 14.1245 33.6565 14.7614 34.7026 15.8478C35.7487 16.9342 36.3207 18.3832 36.2954 19.8824C36.2701 21.3815 35.6495 22.8109 34.5673 23.8622C33.4852 24.9136 32.0282 25.5028 30.5104 25.5028C29.1854 25.5028 27.9068 25.0538 26.8834 24.2404C25.8601 25.0538 24.5814 25.5028 23.2565 25.5028C21.9316 25.5028 20.6529 25.0538 19.6296 24.2404C18.6062 25.0538 17.3276 25.5028 16.0026 25.5028C14.6777 25.5028 13.3991 25.0538 12.3757 24.2404C11.3523 25.0538 10.0737 25.5028 8.74873 25.5028C7.23093 25.5028 5.77392 24.9136 4.69177 23.8622C3.60961 22.8109 2.989 21.3815 2.9637 19.8824C2.9384 18.3832 3.51044 16.9342 4.55651 15.8478C5.60259 14.7614 7.03892 14.1245 8.55587 14.0746L8.56594 14.0742ZM13.2392 23.3914C14.0303 23.9832 14.9997 24.3085 16.0026 24.3085C17.0056 24.3085 17.975 23.9832 18.766 23.3914C17.9528 22.4027 17.4932 21.1682 17.4715 19.8824C17.4487 18.5325 17.9102 17.2233 18.766 16.1828C18.0196 15.6243 17.1124 15.3018 16.1649 15.2685H15.8403C14.8929 15.3018 13.9856 15.6243 13.2392 16.1828C14.095 17.2233 14.5565 18.5325 14.5338 19.8824C14.5121 21.1682 14.0524 22.4027 13.2392 23.3914ZM12.3757 17.0293C13.0047 17.8366 13.3423 18.8346 13.3249 19.8624C13.3085 20.8395 12.9723 21.7791 12.3757 22.5449C11.779 21.7791 11.4429 20.8395 11.4264 19.8624C11.409 18.8346 11.7466 17.8366 12.3757 17.0293ZM11.5121 16.1828C10.6563 17.2233 10.1948 18.5325 10.2176 19.8824C10.2393 21.1682 10.6989 22.4027 11.5121 23.3914C10.7211 23.9832 9.75168 24.3085 8.74873 24.3085C7.54809 24.3085 6.39552 23.8424 5.53949 23.0107C4.68346 22.179 4.19252 21.0484 4.17251 19.8624C4.15249 18.6765 4.60501 17.5303 5.4325 16.6709C6.25775 15.8138 7.39003 15.3105 8.58641 15.2685H8.91105C9.85849 15.3018 10.7657 15.6243 11.5121 16.1828ZM19.6296 17.0293C19.0005 17.8366 18.6629 18.8346 18.6803 19.8624C18.6968 20.8395 19.0329 21.7791 19.6296 22.5449C20.2262 21.7791 20.5623 20.8395 20.5788 19.8624C20.5962 18.8346 20.2586 17.8366 19.6296 17.0293ZM20.4931 23.3914C21.2841 23.9832 22.2535 24.3085 23.2565 24.3085C24.2595 24.3085 25.2289 23.9832 26.0199 23.3914C25.2067 22.4027 24.7471 21.1682 24.7254 19.8824C24.7026 18.5325 25.1641 17.2233 26.0199 16.1828C25.2735 15.6243 24.3663 15.3018 23.4188 15.2685H23.0942C22.1467 15.3018 21.2395 15.6243 20.4931 16.1828C21.3489 17.2233 21.8104 18.5325 21.7876 19.8824C21.7659 21.1682 21.3063 22.4027 20.4931 23.3914ZM26.8834 17.0293C26.2544 17.8366 25.9168 18.8346 25.9342 19.8624C25.9507 20.8395 26.2868 21.7791 26.8834 22.5449C27.4801 21.7791 27.8162 20.8395 27.8327 19.8624C27.8501 18.8346 27.5125 17.8366 26.8834 17.0293ZM27.747 23.3914C28.538 23.9832 29.5074 24.3085 30.5104 24.3085C31.711 24.3085 32.8636 23.8424 33.7196 23.0107C34.5757 22.179 35.0666 21.0484 35.0866 19.8624C35.1066 18.6765 34.6541 17.5303 33.8266 16.6709C33.0014 15.8138 31.8691 15.3105 30.6727 15.2685H30.3481C29.4006 15.3018 28.4934 15.6243 27.747 16.1828C28.6028 17.2233 29.0643 18.5325 29.0415 19.8824C29.0198 21.1682 28.5602 22.4027 27.747 23.3914Z" fill="#F9F9F9"/>
</svg>
