<svg width="40" height="40" viewBox="0 0 40 40" fill="none" xmlns="http://www.w3.org/2000/svg">
<circle cx="20" cy="20" r="20" fill="white"/>
<path fill-rule="evenodd" clip-rule="evenodd" d="M8.56594 14.0741H8.93152L8.94159 14.0744C10.2009 14.1159 11.4046 14.5618 12.3757 15.3337C13.3467 14.5618 14.5505 14.1159 15.8098 14.0744L15.8198 14.0741H16.1854L16.1955 14.0744C17.4548 14.1159 18.6585 14.5618 19.6296 15.3337C20.6006 14.5618 21.8043 14.1159 23.0636 14.0744L23.0737 14.0741H23.4393L23.4494 14.0744C24.7087 14.1159 25.9124 14.5618 26.8834 15.3337C27.8545 14.5618 29.0582 14.1159 30.3175 14.0744L30.3276 14.0741H30.6932L30.7032 14.0744C32.2202 14.1244 33.6565 14.7612 34.7026 15.8477C35.7487 16.9341 36.3207 18.383 36.2954 19.8822C36.2701 21.3814 35.6495 22.8108 34.5673 23.8621C33.4852 24.9135 32.0282 25.5027 30.5104 25.5027C29.1854 25.5027 27.9068 25.0537 26.8834 24.2402C25.8601 25.0537 24.5814 25.5027 23.2565 25.5027C21.9316 25.5027 20.6529 25.0537 19.6296 24.2402C18.6062 25.0537 17.3276 25.5027 16.0026 25.5027C14.6777 25.5027 13.3991 25.0537 12.3757 24.2402C11.3523 25.0537 10.0737 25.5027 8.74873 25.5027C7.23093 25.5027 5.77392 24.9135 4.69177 23.8621C3.60961 22.8108 2.989 21.3814 2.9637 19.8822C2.9384 18.383 3.51044 16.9341 4.55651 15.8477C5.60259 14.7612 7.03892 14.1244 8.55587 14.0744L8.56594 14.0741ZM13.2392 23.3912C14.0303 23.9831 14.9997 24.3083 16.0026 24.3083C17.0056 24.3083 17.975 23.9831 18.766 23.3912C17.9528 22.4026 17.4932 21.1681 17.4715 19.8822C17.4487 18.5323 17.9102 17.2231 18.766 16.1827C18.0196 15.6242 17.1124 15.3016 16.1649 15.2684H15.8403C14.8929 15.3016 13.9856 15.6242 13.2392 16.1827C14.095 17.2231 14.5565 18.5323 14.5338 19.8822C14.5121 21.1681 14.0524 22.4026 13.2392 23.3912ZM12.3757 17.0292C13.0047 17.8365 13.3423 18.8345 13.3249 19.8623C13.3085 20.8394 12.9723 21.779 12.3757 22.5447C11.779 21.779 11.4429 20.8394 11.4264 19.8623C11.409 18.8345 11.7466 17.8365 12.3757 17.0292ZM11.5121 16.1827C10.6563 17.2231 10.1948 18.5323 10.2176 19.8822C10.2393 21.1681 10.6989 22.4026 11.5121 23.3912C10.7211 23.9831 9.75168 24.3083 8.74873 24.3083C7.54809 24.3083 6.39552 23.8423 5.53949 23.0106C4.68346 22.1789 4.19252 21.0483 4.17251 19.8623C4.15249 18.6764 4.60501 17.5302 5.4325 16.6708C6.25775 15.8137 7.39003 15.3104 8.58641 15.2684H8.91105C9.85849 15.3016 10.7657 15.6242 11.5121 16.1827ZM19.6296 17.0292C19.0005 17.8365 18.6629 18.8345 18.6803 19.8623C18.6968 20.8394 19.0329 21.779 19.6296 22.5447C20.2262 21.779 20.5623 20.8394 20.5788 19.8623C20.5962 18.8345 20.2586 17.8365 19.6296 17.0292ZM20.4931 23.3912C21.2841 23.9831 22.2535 24.3083 23.2565 24.3083C24.2595 24.3083 25.2289 23.9831 26.0199 23.3912C25.2067 22.4026 24.7471 21.1681 24.7254 19.8822C24.7026 18.5323 25.1641 17.2231 26.0199 16.1827C25.2735 15.6242 24.3663 15.3016 23.4188 15.2684H23.0942C22.1467 15.3016 21.2395 15.6242 20.4931 16.1827C21.3489 17.2231 21.8104 18.5323 21.7876 19.8822C21.7659 21.1681 21.3063 22.4026 20.4931 23.3912ZM26.8834 17.0292C26.2544 17.8365 25.9168 18.8345 25.9342 19.8623C25.9507 20.8394 26.2868 21.779 26.8834 22.5447C27.4801 21.779 27.8162 20.8394 27.8327 19.8623C27.8501 18.8345 27.5125 17.8365 26.8834 17.0292ZM27.747 23.3912C28.538 23.9831 29.5074 24.3083 30.5104 24.3083C31.711 24.3083 32.8636 23.8423 33.7196 23.0106C34.5757 22.1789 35.0666 21.0483 35.0866 19.8623C35.1066 18.6764 34.6541 17.5302 33.8266 16.6708C33.0014 15.8137 31.8691 15.3104 30.6727 15.2684H30.3481C29.4006 15.3016 28.4934 15.6242 27.747 16.1827C28.6028 17.2231 29.0643 18.5323 29.0415 19.8822C29.0198 21.1681 28.5602 22.4026 27.747 23.3912Z" fill="#0F44AE"/>
</svg>
