<svg width="40" height="40" viewBox="0 0 40 40" fill="none" xmlns="http://www.w3.org/2000/svg">
<circle cx="20" cy="20" r="20" fill="white"/>
<path d="M19.1088 6.69726C26.4559 6.2056 32.8108 11.7629 33.3024 19.1099C33.7941 26.4571 28.2366 32.8115 20.8895 33.3034C13.5422 33.795 7.18759 28.2377 6.69593 20.8905C6.35465 15.7943 8.95514 10.9509 13.3918 8.41978C15.1429 7.42131 17.0974 6.83222 19.1088 6.69726ZM19.5115 7.83069C12.79 8.09789 7.55795 13.7633 7.82541 20.4844C8.09262 27.2057 13.7579 32.4377 20.4794 32.1705C27.2006 31.903 32.4327 26.2378 32.1655 19.5165C32.0027 15.4232 29.7932 11.6861 26.2849 9.57061C24.2457 8.33924 21.8893 7.734 19.509 7.83069H19.5115Z" fill="#0F44AE"/>
<path d="M16.565 9.97107C17.8663 9.54155 19.2361 9.35861 20.6042 9.43169C20.7479 9.42498 20.8911 9.44959 21.0243 9.50377C22.5259 10.6976 23.7143 12.2392 24.4868 13.9953C25.3238 16.0215 25.6327 18.2272 25.3842 20.4056C25.231 21.9902 24.852 23.5444 24.2581 25.0214H25.327C25.4314 24.7505 25.5258 24.477 25.6352 24.2086C26.8795 24.3667 28.0339 24.9404 28.9113 25.8367C28.0371 26.7389 26.8798 27.3136 25.6327 27.4647C25.5308 27.1988 25.4289 26.9353 25.3344 26.6693C22.0583 26.6693 18.7798 26.6693 15.5037 26.6693C15.3396 26.6803 15.182 26.7372 15.0488 26.8334C14.6884 27.0148 14.3329 27.2038 13.9725 27.3852C13.8405 27.4461 13.6948 27.4717 13.5499 27.4598C13.1274 27.4598 12.7048 27.4598 12.2798 27.4598C11.3877 26.5085 10.6656 25.4114 10.1446 24.2161H13.0404C13.2464 24.1949 13.4547 24.2168 13.6518 24.2807C14.1323 24.4877 14.613 24.6975 15.0935 24.9095C15.4564 25.1233 15.8914 24.9965 16.2916 25.0288C16.2302 24.0018 15.9334 23.0023 15.4241 22.1083C14.8827 21.2438 14.1288 20.5326 13.2342 20.0427C12.0352 19.398 10.7416 18.9473 9.40137 18.708C9.58009 17.2917 10.0452 15.9268 10.7685 14.6962C11.7115 14.9107 12.6389 15.1881 13.545 15.5264C14.5168 15.8724 15.4368 16.3499 16.2792 16.9457L16.5501 16.8139C16.0058 16.2064 15.3925 15.6643 14.7232 15.1983C13.7709 14.5038 12.7746 13.872 11.7404 13.3067C12.6096 12.2446 13.6777 11.3625 14.8847 10.7093C15.7107 11.0463 16.4828 11.5029 17.1765 12.0639C18.2312 12.91 19.21 13.8466 20.1021 14.8627L20.4501 14.7708C19.5553 12.8966 18.131 11.3207 16.565 9.97107ZM21.4071 21.2184C20.7138 21.4391 20.3306 22.1798 20.5513 22.8733C20.772 23.5666 21.5127 23.9498 22.2062 23.7291C22.8995 23.5084 23.2825 22.7674 23.062 22.0742C22.9793 21.8145 22.818 21.5865 22.6002 21.4222C22.2587 21.1655 21.8145 21.0897 21.4071 21.2184Z" fill="#0F44AE"/>
</svg>
