<svg width="40" height="40" viewBox="0 0 40 40" fill="none" xmlns="http://www.w3.org/2000/svg">
<circle cx="20" cy="20" r="20" fill="white"/>
<g clip-path="url(#clip0_408_2372)">
<path d="M20.0171 32.0295C13.4106 32.0295 7.99799 26.5904 7.99799 19.9839C7.99799 18.4981 8.26331 17.0919 8.76743 15.7653L15.7985 29.907C15.8781 30.0927 16.0107 30.2519 16.223 30.2519C16.4353 30.2519 16.5679 30.0927 16.6475 29.907L19.8844 22.6637C19.911 22.5841 19.964 22.5045 20.0436 22.5045C20.1232 22.5045 20.1498 22.5841 20.2028 22.6637L23.4398 29.907C23.5194 30.0927 23.652 30.2519 23.8643 30.2519C24.0765 30.2519 24.2092 30.0927 24.2888 29.907L31.3198 15.7653C31.824 17.0919 32.0893 18.4981 32.0893 19.9839C32.0362 26.5904 26.6236 32.0295 20.0171 32.0295ZM20.0171 17.2511C19.9375 17.2511 19.911 17.1715 19.8579 17.0919L16.0903 8.60156C17.3108 8.15052 18.6374 7.91173 20.0171 7.91173C21.3968 7.91173 22.7234 8.15052 23.9439 8.60156L20.1763 17.0919C20.1232 17.198 20.0967 17.2511 20.0171 17.2511ZM16.1699 25.9802C16.0903 25.9802 16.0638 25.9006 16.0107 25.821L9.90832 13.51C10.9961 11.8385 12.4554 10.4323 14.2331 9.4506L18.6374 19.241C18.6905 19.4002 18.8232 19.4533 18.9558 19.4533H21.0784C21.2376 19.4533 21.3437 19.4267 21.4233 19.241L25.8277 9.4506C27.5788 10.4323 29.0646 11.8385 30.1524 13.51L23.9969 25.821C23.9704 25.9006 23.9173 25.9802 23.8378 25.9802C23.7582 25.9802 23.7316 25.9006 23.6786 25.821L21.3703 20.5676C21.2907 20.3819 21.1845 20.3554 21.0253 20.3554H18.9028C18.7436 20.3554 18.6374 20.3819 18.5578 20.5676L16.3291 25.821C16.3026 25.9006 16.2495 25.9802 16.1699 25.9802ZM20.0171 33.25C27.3665 33.25 33.2832 27.3333 33.2832 19.9839C33.2832 12.6345 27.3665 6.71777 20.0171 6.71777C12.6677 6.71777 6.75098 12.6345 6.75098 19.9839C6.75098 27.3333 12.6677 33.25 20.0171 33.25Z" fill="#0F44AE"/>
</g>
<defs>
<clipPath id="clip0_408_2372">
<rect width="26.6667" height="26.6667" fill="white" transform="translate(6.66699 6.66699)"/>
</clipPath>
</defs>
</svg>
