<svg width="221" height="30" viewBox="0 0 221 30" fill="none" xmlns="http://www.w3.org/2000/svg">
<path fill-rule="evenodd" clip-rule="evenodd" d="M44.4123 26.9176L36.2379 8.0144L28.1751 26.9176H21.5479L32.9801 0.453125H39.0346L50.504 26.9176H44.4123Z" fill="#2168EA"/>
<path fill-rule="evenodd" clip-rule="evenodd" d="M69.3145 21.0201C67.8479 21.7967 66.2065 22.1854 64.5468 22.149C59.474 22.149 55.9484 18.6358 55.9484 13.6816C55.9484 8.72741 59.5038 5.19931 64.6211 5.19931C65.9096 5.17501 67.1881 5.42775 68.3701 5.94038C69.5521 6.45301 70.6098 7.21353 71.4716 8.17034L75.4063 4.54568C72.8327 1.5895 68.9724 0 64.3162 0C55.874 0 49.7451 5.70438 49.7451 13.6816C49.7451 21.6588 55.874 27.3706 64.2046 27.3706C68.0398 27.3982 71.7867 26.2212 74.9154 24.0059V13.2657H69.3145V21.0201Z" fill="#2168EA"/>
<path fill-rule="evenodd" clip-rule="evenodd" d="M22.8645 0.453125L14.6901 19.3563L6.62727 0.453125H0L11.4322 26.9176H17.4868L28.9636 0.453125H22.8645Z" fill="#2168EA"/>
<path fill-rule="evenodd" clip-rule="evenodd" d="M41.2287 30.0004H31.165L36.2303 18.2871L41.2287 30.0004Z" fill="#1E2329"/>
<path fill-rule="evenodd" clip-rule="evenodd" d="M94.3959 27.3707H100.525V5.89758H109.004V0.90625H85.9463V5.89758H94.4256L94.3959 27.3707ZM135.774 27.3707L129.823 18.8661C131.487 18.2098 132.906 17.053 133.883 15.5559C134.86 14.0589 135.346 12.2955 135.275 10.5101C135.275 4.56805 130.812 0.90625 123.761 0.90625H112.314V27.3707H118.45V19.9951H124.088L129.198 27.3707H135.774ZM129.079 10.5101C129.079 13.3846 127.183 15.1226 123.434 15.1226H118.443V5.89758H123.434C127.153 5.89758 129.079 7.5985 129.079 10.5101ZM159.917 27.3707H166.351L154.51 0.90625H148.455L136.644 27.3707H142.929L145.272 21.696H157.574L159.917 27.3707ZM147.273 17.0835L151.475 6.9523L155.648 17.0835H147.273ZM169.155 27.4079H181.19C189.863 27.4079 195.806 22.2086 195.806 14.1719C195.806 6.13527 189.855 0.943388 181.19 0.943388H169.126L169.155 27.4079ZM175.284 22.3794V5.94215H180.885C186.151 5.94215 189.595 9.07659 189.595 14.1125C189.595 19.1484 186.151 22.2828 180.885 22.2828L175.284 22.3794ZM206.524 22.4908V16.3408H218.826V11.5648H206.487V5.82331H220.418V0.90625H200.395V27.3707H220.909V22.4537L206.524 22.4908Z" fill="#1E2329"/>
</svg>
